<svg width="157" height="16" viewBox="0 0 157 16" fill="none" xmlns="http://www.w3.org/2000/svg">
<g clip-path="url(#clip0_691_36)">
<path fill-rule="evenodd" clip-rule="evenodd" d="M3.5 11C5.15685 11 6.5 9.65685 6.5 8C6.5 6.34315 5.15685 5 3.5 5C1.84315 5 0.5 6.34315 0.5 8C0.5 9.65685 1.84315 11 3.5 11Z" fill="#BEBF07"/>
<path d="M20.308 4.66V5.776H16.768V8.236H19.528V9.352H16.768V13H15.4V4.66H20.308ZM27.6358 9.532C27.6358 9.78 27.6198 10.004 27.5878 10.204H22.5358C22.5758 10.732 22.7718 11.156 23.1238 11.476C23.4758 11.796 23.9078 11.956 24.4198 11.956C25.1558 11.956 25.6758 11.648 25.9798 11.032H27.4558C27.2558 11.64 26.8918 12.14 26.3638 12.532C25.8438 12.916 25.1958 13.108 24.4198 13.108C23.7878 13.108 23.2198 12.968 22.7158 12.688C22.2198 12.4 21.8278 12 21.5398 11.488C21.2598 10.968 21.1198 10.368 21.1198 9.688C21.1198 9.008 21.2558 8.412 21.5278 7.9C21.8078 7.38 22.1958 6.98 22.6918 6.7C23.1958 6.42 23.7718 6.28 24.4198 6.28C25.0438 6.28 25.5998 6.416 26.0878 6.688C26.5758 6.96 26.9558 7.344 27.2278 7.84C27.4998 8.328 27.6358 8.892 27.6358 9.532ZM26.2078 9.1C26.1998 8.596 26.0198 8.192 25.6678 7.888C25.3158 7.584 24.8798 7.432 24.3598 7.432C23.8878 7.432 23.4838 7.584 23.1478 7.888C22.8118 8.184 22.6118 8.588 22.5478 9.1H26.2078ZM36.986 6.28C37.506 6.28 37.97 6.388 38.378 6.604C38.794 6.82 39.118 7.14 39.35 7.564C39.59 7.988 39.71 8.5 39.71 9.1V13H38.354V9.304C38.354 8.712 38.206 8.26 37.91 7.948C37.614 7.628 37.21 7.468 36.698 7.468C36.186 7.468 35.778 7.628 35.474 7.948C35.178 8.26 35.03 8.712 35.03 9.304V13H33.674V9.304C33.674 8.712 33.526 8.26 33.23 7.948C32.934 7.628 32.53 7.468 32.018 7.468C31.506 7.468 31.098 7.628 30.794 7.948C30.498 8.26 30.35 8.712 30.35 9.304V13H28.982V6.388H30.35V7.144C30.574 6.872 30.858 6.66 31.202 6.508C31.546 6.356 31.914 6.28 32.306 6.28C32.834 6.28 33.306 6.392 33.722 6.616C34.138 6.84 34.458 7.164 34.682 7.588C34.882 7.188 35.194 6.872 35.618 6.64C36.042 6.4 36.498 6.28 36.986 6.28ZM40.9948 9.664C40.9948 9 41.1308 8.412 41.4028 7.9C41.6828 7.388 42.0588 6.992 42.5308 6.712C43.0108 6.424 43.5388 6.28 44.1148 6.28C44.6348 6.28 45.0868 6.384 45.4708 6.592C45.8628 6.792 46.1748 7.044 46.4068 7.348V6.388H47.7868V13H46.4068V12.016C46.1748 12.328 45.8588 12.588 45.4588 12.796C45.0588 13.004 44.6028 13.108 44.0908 13.108C43.5228 13.108 43.0028 12.964 42.5308 12.676C42.0588 12.38 41.6828 11.972 41.4028 11.452C41.1308 10.924 40.9948 10.328 40.9948 9.664ZM46.4068 9.688C46.4068 9.232 46.3108 8.836 46.1188 8.5C45.9348 8.164 45.6908 7.908 45.3868 7.732C45.0828 7.556 44.7548 7.468 44.4028 7.468C44.0508 7.468 43.7228 7.556 43.4188 7.732C43.1148 7.9 42.8668 8.152 42.6748 8.488C42.4908 8.816 42.3988 9.208 42.3988 9.664C42.3988 10.12 42.4908 10.52 42.6748 10.864C42.8668 11.208 43.1148 11.472 43.4188 11.656C43.7308 11.832 44.0588 11.92 44.4028 11.92C44.7548 11.92 45.0828 11.832 45.3868 11.656C45.6908 11.48 45.9348 11.224 46.1188 10.888C46.3108 10.544 46.4068 10.144 46.4068 9.688ZM50.9516 4.12V13H49.5836V4.12H50.9516ZM58.8077 9.532C58.8077 9.78 58.7917 10.004 58.7597 10.204H53.7077C53.7477 10.732 53.9437 11.156 54.2957 11.476C54.6477 11.796 55.0797 11.956 55.5917 11.956C56.3277 11.956 56.8477 11.648 57.1517 11.032H58.6277C58.4277 11.64 58.0637 12.14 57.5357 12.532C57.0157 12.916 56.3677 13.108 55.5917 13.108C54.9597 13.108 54.3917 12.968 53.8877 12.688C53.3917 12.4 52.9997 12 52.7117 11.488C52.4317 10.968 52.2917 10.368 52.2917 9.688C52.2917 9.008 52.4277 8.412 52.6997 7.9C52.9797 7.38 53.3677 6.98 53.8637 6.7C54.3677 6.42 54.9437 6.28 55.5917 6.28C56.2157 6.28 56.7717 6.416 57.2597 6.688C57.7477 6.96 58.1277 7.344 58.3997 7.84C58.6717 8.328 58.8077 8.892 58.8077 9.532ZM57.3797 9.1C57.3717 8.596 57.1917 8.192 56.8397 7.888C56.4877 7.584 56.0517 7.432 55.5317 7.432C55.0597 7.432 54.6557 7.584 54.3197 7.888C53.9837 8.184 53.7837 8.588 53.7197 9.1H57.3797ZM62.8751 6.364C62.8751 5.78 63.0431 5.324 63.3791 4.996C63.7231 4.66 64.1631 4.492 64.6991 4.492C65.2351 4.492 65.6711 4.66 66.0071 4.996C66.3511 5.324 66.5231 5.78 66.5231 6.364C66.5231 6.948 66.3511 7.408 66.0071 7.744C65.6711 8.08 65.2351 8.248 64.6991 8.248C64.1631 8.248 63.7231 8.08 63.3791 7.744C63.0431 7.408 62.8751 6.948 62.8751 6.364ZM70.1951 4.648L65.4071 13H64.0631L68.8511 4.648H70.1951ZM64.6991 5.32C64.1951 5.32 63.9431 5.668 63.9431 6.364C63.9431 7.068 64.1951 7.42 64.6991 7.42C64.9391 7.42 65.1231 7.336 65.2511 7.168C65.3871 6.992 65.4551 6.724 65.4551 6.364C65.4551 5.668 65.2031 5.32 64.6991 5.32ZM67.7591 11.272C67.7591 10.688 67.9271 10.232 68.2631 9.904C68.6071 9.568 69.0471 9.4 69.5831 9.4C70.1111 9.4 70.5431 9.568 70.8791 9.904C71.2231 10.232 71.3951 10.688 71.3951 11.272C71.3951 11.856 71.2231 12.316 70.8791 12.652C70.5431 12.988 70.1111 13.156 69.5831 13.156C69.0471 13.156 68.6071 12.988 68.2631 12.652C67.9271 12.316 67.7591 11.856 67.7591 11.272ZM69.5711 10.228C69.0671 10.228 68.8151 10.576 68.8151 11.272C68.8151 11.968 69.0671 12.316 69.5711 12.316C70.0751 12.316 70.3271 11.968 70.3271 11.272C70.3271 10.576 70.0751 10.228 69.5711 10.228ZM78.7836 13.108C78.1596 13.108 77.5956 12.968 77.0916 12.688C76.5876 12.4 76.1916 12 75.9036 11.488C75.6156 10.968 75.4716 10.368 75.4716 9.688C75.4716 9.016 75.6196 8.42 75.9156 7.9C76.2116 7.38 76.6156 6.98 77.1276 6.7C77.6396 6.42 78.2116 6.28 78.8436 6.28C79.4756 6.28 80.0476 6.42 80.5596 6.7C81.0716 6.98 81.4756 7.38 81.7716 7.9C82.0676 8.42 82.2156 9.016 82.2156 9.688C82.2156 10.36 82.0636 10.956 81.7596 11.476C81.4556 11.996 81.0396 12.4 80.5116 12.688C79.9916 12.968 79.4156 13.108 78.7836 13.108ZM78.7836 11.92C79.1356 11.92 79.4636 11.836 79.7676 11.668C80.0796 11.5 80.3316 11.248 80.5236 10.912C80.7156 10.576 80.8116 10.168 80.8116 9.688C80.8116 9.208 80.7196 8.804 80.5356 8.476C80.3516 8.14 80.1076 7.888 79.8036 7.72C79.4996 7.552 79.1716 7.468 78.8196 7.468C78.4676 7.468 78.1396 7.552 77.8356 7.72C77.5396 7.888 77.3036 8.14 77.1276 8.476C76.9516 8.804 76.8636 9.208 76.8636 9.688C76.8636 10.4 77.0436 10.952 77.4036 11.344C77.7716 11.728 78.2316 11.92 78.7836 11.92ZM86.34 7.504H85.116V13H83.736V7.504H82.956V6.388H83.736V5.92C83.736 5.16 83.936 4.608 84.336 4.264C84.744 3.912 85.38 3.736 86.244 3.736V4.876C85.828 4.876 85.536 4.956 85.368 5.116C85.2 5.268 85.116 5.536 85.116 5.92V6.388H86.34V7.504ZM92.0375 5.764V8.212H94.9175V9.328H92.0375V11.884H95.2775V13H90.6695V4.648H95.2775V5.764H92.0375ZM104.967 6.28C105.487 6.28 105.951 6.388 106.359 6.604C106.775 6.82 107.099 7.14 107.331 7.564C107.571 7.988 107.691 8.5 107.691 9.1V13H106.335V9.304C106.335 8.712 106.187 8.26 105.891 7.948C105.595 7.628 105.191 7.468 104.679 7.468C104.167 7.468 103.759 7.628 103.455 7.948C103.159 8.26 103.011 8.712 103.011 9.304V13H101.655V9.304C101.655 8.712 101.507 8.26 101.211 7.948C100.915 7.628 100.511 7.468 99.9985 7.468C99.4865 7.468 99.0785 7.628 98.7745 7.948C98.4785 8.26 98.3305 8.712 98.3305 9.304V13H96.9625V6.388H98.3305V7.144C98.5545 6.872 98.8385 6.66 99.1825 6.508C99.5265 6.356 99.8945 6.28 100.287 6.28C100.815 6.28 101.287 6.392 101.703 6.616C102.119 6.84 102.439 7.164 102.663 7.588C102.863 7.188 103.175 6.872 103.599 6.64C104.023 6.4 104.479 6.28 104.967 6.28ZM110.799 7.36C111.031 7.056 111.347 6.8 111.747 6.592C112.147 6.384 112.599 6.28 113.103 6.28C113.679 6.28 114.203 6.424 114.675 6.712C115.155 6.992 115.531 7.388 115.803 7.9C116.075 8.412 116.211 9 116.211 9.664C116.211 10.328 116.075 10.924 115.803 11.452C115.531 11.972 115.155 12.38 114.675 12.676C114.203 12.964 113.679 13.108 113.103 13.108C112.599 13.108 112.151 13.008 111.759 12.808C111.367 12.6 111.047 12.344 110.799 12.04V16.144H109.431V6.388H110.799V7.36ZM114.819 9.664C114.819 9.208 114.723 8.816 114.531 8.488C114.347 8.152 114.099 7.9 113.787 7.732C113.483 7.556 113.155 7.468 112.803 7.468C112.459 7.468 112.131 7.556 111.819 7.732C111.515 7.908 111.267 8.164 111.075 8.5C110.891 8.836 110.799 9.232 110.799 9.688C110.799 10.144 110.891 10.544 111.075 10.888C111.267 11.224 111.515 11.48 111.819 11.656C112.131 11.832 112.459 11.92 112.803 11.92C113.155 11.92 113.483 11.832 113.787 11.656C114.099 11.472 114.347 11.208 114.531 10.864C114.723 10.52 114.819 10.12 114.819 9.664ZM118.932 4.12V13H117.564V4.12H118.932ZM123.596 13.108C122.972 13.108 122.408 12.968 121.904 12.688C121.4 12.4 121.004 12 120.716 11.488C120.428 10.968 120.284 10.368 120.284 9.688C120.284 9.016 120.432 8.42 120.728 7.9C121.024 7.38 121.428 6.98 121.94 6.7C122.452 6.42 123.024 6.28 123.656 6.28C124.288 6.28 124.86 6.42 125.372 6.7C125.884 6.98 126.288 7.38 126.584 7.9C126.88 8.42 127.028 9.016 127.028 9.688C127.028 10.36 126.876 10.956 126.572 11.476C126.268 11.996 125.852 12.4 125.324 12.688C124.804 12.968 124.228 13.108 123.596 13.108ZM123.596 11.92C123.948 11.92 124.276 11.836 124.58 11.668C124.892 11.5 125.144 11.248 125.336 10.912C125.528 10.576 125.624 10.168 125.624 9.688C125.624 9.208 125.532 8.804 125.348 8.476C125.164 8.14 124.92 7.888 124.616 7.72C124.312 7.552 123.984 7.468 123.632 7.468C123.28 7.468 122.952 7.552 122.648 7.72C122.352 7.888 122.116 8.14 121.94 8.476C121.764 8.804 121.676 9.208 121.676 9.688C121.676 10.4 121.856 10.952 122.216 11.344C122.584 11.728 123.044 11.92 123.596 11.92ZM134.332 6.388L130.276 16.108H128.86L130.204 12.892L127.6 6.388H129.124L130.984 11.428L132.916 6.388H134.332ZM141.425 9.532C141.425 9.78 141.409 10.004 141.377 10.204H136.325C136.365 10.732 136.561 11.156 136.913 11.476C137.265 11.796 137.697 11.956 138.209 11.956C138.945 11.956 139.465 11.648 139.769 11.032H141.245C141.045 11.64 140.681 12.14 140.153 12.532C139.633 12.916 138.985 13.108 138.209 13.108C137.577 13.108 137.009 12.968 136.505 12.688C136.009 12.4 135.617 12 135.329 11.488C135.049 10.968 134.909 10.368 134.909 9.688C134.909 9.008 135.045 8.412 135.317 7.9C135.597 7.38 135.985 6.98 136.481 6.7C136.985 6.42 137.561 6.28 138.209 6.28C138.833 6.28 139.389 6.416 139.877 6.688C140.365 6.96 140.745 7.344 141.017 7.84C141.289 8.328 141.425 8.892 141.425 9.532ZM139.997 9.1C139.989 8.596 139.809 8.192 139.457 7.888C139.105 7.584 138.669 7.432 138.149 7.432C137.677 7.432 137.273 7.584 136.937 7.888C136.601 8.184 136.401 8.588 136.337 9.1H139.997ZM148.831 9.532C148.831 9.78 148.815 10.004 148.783 10.204H143.731C143.771 10.732 143.967 11.156 144.319 11.476C144.671 11.796 145.103 11.956 145.615 11.956C146.351 11.956 146.871 11.648 147.175 11.032H148.651C148.451 11.64 148.087 12.14 147.559 12.532C147.039 12.916 146.391 13.108 145.615 13.108C144.983 13.108 144.415 12.968 143.911 12.688C143.415 12.4 143.023 12 142.735 11.488C142.455 10.968 142.315 10.368 142.315 9.688C142.315 9.008 142.451 8.412 142.723 7.9C143.003 7.38 143.391 6.98 143.887 6.7C144.391 6.42 144.967 6.28 145.615 6.28C146.239 6.28 146.795 6.416 147.283 6.688C147.771 6.96 148.151 7.344 148.423 7.84C148.695 8.328 148.831 8.892 148.831 9.532ZM147.403 9.1C147.395 8.596 147.215 8.192 146.863 7.888C146.511 7.584 146.075 7.432 145.555 7.432C145.083 7.432 144.679 7.584 144.343 7.888C144.007 8.184 143.807 8.588 143.743 9.1H147.403ZM152.577 13.108C152.057 13.108 151.589 13.016 151.173 12.832C150.765 12.64 150.441 12.384 150.201 12.064C149.961 11.736 149.833 11.372 149.817 10.972H151.233C151.257 11.252 151.389 11.488 151.629 11.68C151.877 11.864 152.185 11.956 152.553 11.956C152.937 11.956 153.233 11.884 153.441 11.74C153.657 11.588 153.765 11.396 153.765 11.164C153.765 10.916 153.645 10.732 153.405 10.612C153.173 10.492 152.801 10.36 152.289 10.216C151.793 10.08 151.389 9.948 151.077 9.82C150.765 9.692 150.493 9.496 150.261 9.232C150.037 8.968 149.925 8.62 149.925 8.188C149.925 7.836 150.029 7.516 150.237 7.228C150.445 6.932 150.741 6.7 151.125 6.532C151.517 6.364 151.965 6.28 152.469 6.28C153.221 6.28 153.825 6.472 154.281 6.856C154.745 7.232 154.993 7.748 155.025 8.404H153.657C153.633 8.108 153.513 7.872 153.297 7.696C153.081 7.52 152.789 7.432 152.421 7.432C152.061 7.432 151.785 7.5 151.593 7.636C151.401 7.772 151.305 7.952 151.305 8.176C151.305 8.352 151.369 8.5 151.497 8.62C151.625 8.74 151.781 8.836 151.965 8.908C152.149 8.972 152.421 9.056 152.781 9.16C153.261 9.288 153.653 9.42 153.957 9.556C154.269 9.684 154.537 9.876 154.761 10.132C154.985 10.388 155.101 10.728 155.109 11.152C155.109 11.528 155.005 11.864 154.797 12.16C154.589 12.456 154.293 12.688 153.909 12.856C153.533 13.024 153.089 13.108 152.577 13.108Z" fill="#8D92A3"/>
</g>
<defs>
<clipPath id="clip0_691_36">
<rect width="156" height="16" fill="white" transform="translate(0.5)"/>
</clipPath>
</defs>
</svg>
