<svg width="15" height="176" viewBox="0 0 15 176" fill="none" xmlns="http://www.w3.org/2000/svg">
<g clip-path="url(#clip0_691_33)">
<path d="M0.5 0.500005C0.5 0.223862 0.723858 0 1 0H8C8.27614 0 8.5 0.223858 8.5 0.5V175.5C8.5 175.776 8.27614 176 8 176H1C0.723858 176 0.5 175.776 0.5 175.5V0.500005Z" fill="#F8F8F8"/>
<path d="M0.5 87.5C0.5 87.2239 0.723858 87 1 87H14C14.2761 87 14.5 87.2239 14.5 87.5V175.5C14.5 175.776 14.2761 176 14 176H1C0.723857 176 0.5 175.776 0.5 175.5V87.5Z" fill="#BEBF07"/>
</g>
<defs>
<clipPath id="clip0_691_33">
<rect width="14" height="176" fill="white" transform="translate(0.5)"/>
</clipPath>
</defs>
</svg>
